<svg xmlns="http://www.w3.org/2000/svg" viewBox="0 0 24 24"><path d="m23.5 11-2.2-2.3c-.3-.2-.5-.6-.5-1V4.6A1.5 1.5 0 0 0 19.4 3h-3.2c-.4 0-.7-.2-1-.5L13 .4a1.5 1.5 0 0 0-2 0L8.6 2.6c-.3.3-.6.5-1 .5h-3A1.5 1.5 0 0 0 3 4.6v3c0 .4-.1.8-.4 1L.4 11a1.5 1.5 0 0 0 0 2l2.3 2.3c.3.3.4.7.4 1v3.2A1.5 1.5 0 0 0 4.6 21h3.1c.4 0 .8.2 1 .4l2.3 2.2a1.5 1.5 0 0 0 2 0l2.2-2.2c.3-.2.7-.4 1-.4h3.2a1.5 1.5 0 0 0 1.5-1.5v-3c0-.5.1-.8.4-1.1l2.2-2.2a1.5 1.5 0 0 0 0-2.1ZM12 17.8 7.3 8h2.4l2.4 5 2.2-5h2.3L12 17.8Z" fill="#0080FF"/></svg>